<?xml version="1.0" encoding="UTF-8" standalone="no"?>
<svg
   width="562"
   height="238"
   viewBox="0 0 562 238"
   fill="none"
   version="1.1"
   id="svg526"
   sodipodi:docname="FlashSlicer_about.svg"
   inkscape:version="1.2.2 (732a01da63, 2022-12-09)"
   xml:space="preserve"
   inkscape:export-filename="FlashSlicer_about2.svg"
   inkscape:export-xdpi="96"
   inkscape:export-ydpi="96"
   xmlns:inkscape="http://www.inkscape.org/namespaces/inkscape"
   xmlns:sodipodi="http://sodipodi.sourceforge.net/DTD/sodipodi-0.dtd"
   xmlns="http://www.w3.org/2000/svg"
   xmlns:svg="http://www.w3.org/2000/svg"><defs
     id="defs530" /><sodipodi:namedview
     id="namedview528"
     pagecolor="#ffffff"
     bordercolor="#000000"
     borderopacity="0.25"
     inkscape:showpageshadow="2"
     inkscape:pageopacity="0.0"
     inkscape:pagecheckerboard="0"
     inkscape:deskcolor="#d1d1d1"
     showgrid="true"
     inkscape:zoom="1.5224185"
     inkscape:cx="302.47925"
     inkscape:cy="45.651048"
     inkscape:window-width="1920"
     inkscape:window-height="1001"
     inkscape:window-x="-9"
     inkscape:window-y="-9"
     inkscape:window-maximized="1"
     inkscape:current-layer="svg526"><inkscape:grid
       id="grid1"
       units="px"
       originx="0"
       originy="0"
       spacingx="0.1"
       spacingy="0.1"
       empcolor="#0099e5"
       empopacity="0.30196078"
       color="#0099e5"
       opacity="0.14901961"
       empspacing="5"
       dotted="false"
       gridanglex="30"
       gridanglez="30"
       visible="true" /></sodipodi:namedview><rect
     x="1"
     y="1"
     width="560"
     height="237"
     fill="#009688"
     id="rect366"
     style="fill:#4d4d4d;fill-opacity:1" /><g
     opacity="0.2"
     id="g408"><path
       d="M 19.234,8.7434 V 25.4149 L 37.159,18.6717 V 2.00019 Z"
       stroke="#ffffff"
       stroke-width="1.5"
       stroke-miterlimit="10"
       id="path368" /><path
       d="M 19.2341,8.7434 V 25.4149 L 1,18.6717 V 2.00019 Z"
       stroke="#ffffff"
       stroke-width="1.5"
       stroke-miterlimit="10"
       id="path370" /><path
       d="M 90.9363,8.7434 V 25.4149 L 73.0113,18.6717 V 2.00019 Z"
       stroke="#ffffff"
       stroke-width="1.5"
       stroke-miterlimit="10"
       id="path372" /><path
       d="m 127.404,8.7434 v 16.6715 l 17.925,-6.7432 V 2.00019 Z"
       stroke="#ffffff"
       stroke-width="1.5"
       stroke-miterlimit="10"
       id="path374" /><path
       d="M 19.2341,25.538 V 42.2238 L 1,35.4806 V 18.8091 Z"
       stroke="#ffffff"
       stroke-width="1.5"
       stroke-miterlimit="10"
       id="path376" /><path
       d="M 19.234,58.7326 V 75.8463 L 37.159,68.9302 V 51.8313 Z"
       stroke="#ffffff"
       stroke-width="1.5"
       stroke-miterlimit="10"
       id="path378" /><path
       d="m 55.3944,25.538 v 16.6858 l 17.616,-6.7432 V 18.8091 Z"
       stroke="#ffffff"
       stroke-width="1.5"
       stroke-miterlimit="10"
       id="path380" /><path
       d="M 90.9363,42.2787 V 58.7364 L 73.0113,52.0939 V 35.6219 Z"
       stroke="#ffffff"
       stroke-width="1.5"
       stroke-miterlimit="10"
       id="path382" /><path
       d="M 90.9363,96.0424 V 112.5 l -17.925,-6.642 V 89.3856 Z"
       stroke="#ffffff"
       stroke-width="1.5"
       stroke-miterlimit="10"
       id="path384" /><path
       d="M 55.3945,25.6388 V 42.524 L 37.1604,35.7089 V 18.8091 Z"
       stroke="#ffffff"
       stroke-width="1.5"
       stroke-miterlimit="10"
       id="path386" /><path
       d="M 55.3945,42.3652 V 59.0366 L 37.1604,52.3078 V 35.6219 Z"
       stroke="#ffffff"
       stroke-width="1.5"
       stroke-miterlimit="10"
       id="path388" /><path
       d="m 127.404,42.2787 v 16.4577 l 17.925,-6.6425 v -16.472 z"
       stroke="#ffffff"
       stroke-width="1.5"
       stroke-miterlimit="10"
       id="path390" /><path
       d="M 163.251,25.538 V 42.2238 L 145.326,35.4806 V 18.8091 Z"
       stroke="#ffffff"
       stroke-width="1.5"
       stroke-miterlimit="10"
       id="path392" /><path
       d="M 127.404,75.4718 V 92.357 l 17.925,-6.8151 V 68.6422 Z"
       stroke="#ffffff"
       stroke-width="1.5"
       stroke-miterlimit="10"
       id="path394" /><path
       d="M 163.251,42.2233 V 59.337 L 145.326,52.4209 V 35.472 Z"
       stroke="#ffffff"
       stroke-width="1.5"
       stroke-miterlimit="10"
       id="path396" /><path
       d="M 90.9338,58.7326 V 75.8463 L 108.859,68.9302 V 51.8313 Z"
       stroke="#ffffff"
       stroke-width="1.5"
       stroke-miterlimit="10"
       id="path398" /><path
       d="M 199.413,25.538 V 42.2238 L 181.179,35.4806 V 18.8091 Z"
       stroke="#ffffff"
       stroke-width="1.5"
       stroke-miterlimit="10"
       id="path400" /><path
       d="M 127.401,25.538 V 42.2238 L 108.858,35.4806 V 18.8091 Z"
       stroke="#ffffff"
       stroke-width="1.5"
       stroke-miterlimit="10"
       id="path402" /><path
       d="M 199.413,58.7326 V 75.8463 L 181.179,68.9302 V 51.8313 Z"
       stroke="#ffffff"
       stroke-width="1.5"
       stroke-miterlimit="10"
       id="path404" /><path
       d="M 163.253,8.65694 V 25.1147 l 17.925,-6.6426 V 2.00019 Z"
       stroke="#ffffff"
       stroke-width="1.5"
       stroke-miterlimit="10"
       id="path406" /></g><g
     opacity="0.2"
     id="g458"><path
       d="M 235.752,8.74321 V 25.4147 l 17.925,-6.7432 V 2 Z"
       stroke="#ffffff"
       stroke-width="1.5"
       stroke-miterlimit="10"
       id="path410" /><path
       d="M 235.75,8.74321 V 25.4147 L 217.516,18.6715 V 2 Z"
       stroke="#ffffff"
       stroke-width="1.5"
       stroke-miterlimit="10"
       id="path412" /><path
       d="M 307.45,8.74321 V 25.4147 L 289.525,18.6715 V 2 Z"
       stroke="#ffffff"
       stroke-width="1.5"
       stroke-miterlimit="10"
       id="path414" /><path
       d="M 343.92,8.74321 V 25.4147 l 17.925,-6.7432 V 2 Z"
       stroke="#ffffff"
       stroke-width="1.5"
       stroke-miterlimit="10"
       id="path416" /><path
       d="m 199.591,42.2785 v 16.4578 l 17.925,-6.6426 V 35.6218 Z"
       stroke="#ffffff"
       stroke-width="1.5"
       stroke-miterlimit="10"
       id="path418" /><path
       d="M 235.75,25.5378 V 42.2236 L 217.516,35.4804 V 18.8089 Z"
       stroke="#ffffff"
       stroke-width="1.5"
       stroke-miterlimit="10"
       id="path420" /><path
       d="M 235.752,58.7325 V 75.8461 L 253.677,68.93 V 51.8311 Z"
       stroke="#ffffff"
       stroke-width="1.5"
       stroke-miterlimit="10"
       id="path422" /><path
       d="m 271.91,25.5378 v 16.6858 l 17.616,-6.7432 V 18.8089 Z"
       stroke="#ffffff"
       stroke-width="1.5"
       stroke-miterlimit="10"
       id="path424" /><path
       d="M 307.45,42.2785 V 58.7363 L 289.525,52.0937 V 35.6218 Z"
       stroke="#ffffff"
       stroke-width="1.5"
       stroke-miterlimit="10"
       id="path426" /><path
       d="M 307.45,76.8426 V 93.3003 L 289.525,86.6577 V 70.1858 Z"
       stroke="#ffffff"
       stroke-width="1.5"
       stroke-miterlimit="10"
       id="path428" /><path
       d="M 271.908,25.6386 V 42.5238 L 253.674,35.7087 V 18.8089 Z"
       stroke="#ffffff"
       stroke-width="1.5"
       stroke-miterlimit="10"
       id="path430" /><path
       d="M 271.908,42.365 V 59.0365 L 253.674,52.3076 V 35.6218 Z"
       stroke="#ffffff"
       stroke-width="1.5"
       stroke-miterlimit="10"
       id="path432" /><path
       d="m 343.92,42.2785 v 16.4578 l 17.925,-6.6426 V 35.6218 Z"
       stroke="#ffffff"
       stroke-width="1.5"
       stroke-miterlimit="10"
       id="path434" /><path
       d="M 379.769,25.5378 V 42.2236 L 361.844,35.4804 V 18.8089 Z"
       stroke="#ffffff"
       stroke-width="1.5"
       stroke-miterlimit="10"
       id="path436" /><path
       d="m 343.92,75.4716 v 16.8852 l 17.925,-6.8151 V 68.642 Z"
       stroke="#ffffff"
       stroke-width="1.5"
       stroke-miterlimit="10"
       id="path438" /><path
       d="M 379.769,42.2231 V 59.3368 L 361.844,52.4207 V 35.4719 Z"
       stroke="#ffffff"
       stroke-width="1.5"
       stroke-miterlimit="10"
       id="path440" /><path
       d="M 307.452,58.7325 V 75.8461 L 325.377,68.93 V 51.8311 Z"
       stroke="#ffffff"
       stroke-width="1.5"
       stroke-miterlimit="10"
       id="path442" /><path
       d="M 415.925,25.5378 V 42.2236 L 397.691,35.4804 V 18.8089 Z"
       stroke="#ffffff"
       stroke-width="1.5"
       stroke-miterlimit="10"
       id="path444" /><path
       d="m 379.771,58.7472 v 17.0989 l 17.925,-6.9014 V 51.8311 Z"
       stroke="#ffffff"
       stroke-width="1.5"
       stroke-miterlimit="10"
       id="path446" /><path
       d="m 379.769,98.3847 v 17.0993 l 17.925,-6.902 V 91.4686 Z"
       stroke="#ffffff"
       stroke-width="1.5"
       stroke-miterlimit="10"
       id="path448" /><path
       d="M 343.917,25.5378 V 42.2236 L 325.374,35.4804 V 18.8089 Z"
       stroke="#ffffff"
       stroke-width="1.5"
       stroke-miterlimit="10"
       id="path450" /><path
       d="M 415.925,58.7325 V 75.8461 L 397.691,68.93 V 51.8311 Z"
       stroke="#ffffff"
       stroke-width="1.5"
       stroke-miterlimit="10"
       id="path452" /><path
       d="m 455.53,113.522 v 17.114 l -18.234,-6.916 v -17.099 z"
       stroke="#ffffff"
       stroke-width="1.5"
       stroke-miterlimit="10"
       id="path454" /><path
       d="M 379.771,8.65675 V 25.1145 l 17.925,-6.6426 V 2 Z"
       stroke="#ffffff"
       stroke-width="1.5"
       stroke-miterlimit="10"
       id="path456" /></g><g
     opacity="0.5"
     id="g470"><g
       opacity="0.2"
       id="g468"><path
         d="M 452.919,8.74321 V 25.4147 L 434.685,18.6715 V 2 Z"
         stroke="#ffffff"
         stroke-width="1.5"
         stroke-miterlimit="10"
         id="path460" /><path
         d="m 416.76,42.2785 v 16.4578 l 17.925,-6.6426 V 35.6218 Z"
         stroke="#ffffff"
         stroke-width="1.5"
         stroke-miterlimit="10"
         id="path462" /><path
         d="m 416.76,75.2345 v 16.4577 l 17.925,-6.6426 V 68.5777 Z"
         stroke="#ffffff"
         stroke-width="1.5"
         stroke-miterlimit="10"
         id="path464" /><path
         d="M 452.919,25.5378 V 42.2236 L 434.685,35.4804 V 18.8089 Z"
         stroke="#ffffff"
         stroke-width="1.5"
         stroke-miterlimit="10"
         id="path466" /></g></g><g
     opacity="0.2"
     id="g498"><path
       d="M 452.832,8.74321 V 25.4147 l 17.925,-6.7432 V 2 Z"
       stroke="#ffffff"
       stroke-width="1.5"
       stroke-miterlimit="10"
       id="path472" /><path
       d="M 452.832,8.74321 V 25.4147 L 434.598,18.6715 V 2 Z"
       stroke="#ffffff"
       stroke-width="1.5"
       stroke-miterlimit="10"
       id="path474" /><path
       d="M 524.534,8.74321 V 25.4147 L 506.609,18.6715 V 2 Z"
       stroke="#ffffff"
       stroke-width="1.5"
       stroke-miterlimit="10"
       id="path476" /><path
       d="M 452.832,25.5378 V 42.2236 L 434.598,35.4804 V 18.8089 Z"
       stroke="#ffffff"
       stroke-width="1.5"
       stroke-miterlimit="10"
       id="path478" /><path
       d="M 452.832,58.7325 V 75.8461 L 470.757,68.93 V 51.8311 Z"
       stroke="#ffffff"
       stroke-width="1.5"
       stroke-miterlimit="10"
       id="path480" /><path
       d="m 488.992,25.5378 v 16.6858 l 17.616,-6.7432 V 18.8089 Z"
       stroke="#ffffff"
       stroke-width="1.5"
       stroke-miterlimit="10"
       id="path482" /><path
       d="M 524.534,42.2785 V 58.7363 L 506.609,52.0937 V 35.6218 Z"
       stroke="#ffffff"
       stroke-width="1.5"
       stroke-miterlimit="10"
       id="path484" /><path
       d="M 524.534,96.0422 V 112.5 l -17.925,-6.643 V 89.3854 Z"
       stroke="#ffffff"
       stroke-width="1.5"
       stroke-miterlimit="10"
       id="path486" /><path
       d="M 488.992,25.6386 V 42.5238 L 470.758,35.7087 V 18.8089 Z"
       stroke="#ffffff"
       stroke-width="1.5"
       stroke-miterlimit="10"
       id="path488" /><path
       d="M 488.992,42.365 V 59.0365 L 470.758,52.3076 V 35.6218 Z"
       stroke="#ffffff"
       stroke-width="1.5"
       stroke-miterlimit="10"
       id="path490" /><path
       d="M 524.531,58.7325 V 75.8461 L 542.457,68.93 V 51.8311 Z"
       stroke="#ffffff"
       stroke-width="1.5"
       stroke-miterlimit="10"
       id="path492" /><path
       d="M 560.999,25.5378 V 42.2236 L 542.456,35.4804 V 18.8089 Z"
       stroke="#ffffff"
       stroke-width="1.5"
       stroke-miterlimit="10"
       id="path494" /><path
       d="M 560.999,77.5065 V 94.1923 L 542.456,87.4491 V 70.7776 Z"
       stroke="#ffffff"
       stroke-width="1.5"
       stroke-miterlimit="10"
       id="path496" /></g><g
     id="g1"
     transform="matrix(1.0283955,0,0,1.0283955,109.48028,94.235123)"><g
       inkscape:label="图层 1"
       id="layer1"><g
         id="g3"><path
           style="display:inline;fill:#000000;stroke:#000000;stroke-width:0.256221"
           id="path3"
           sodipodi:type="arc"
           sodipodi:cx="34.113354"
           sodipodi:cy="34.043205"
           sodipodi:rx="32.761242"
           sodipodi:ry="32.831406"
           sodipodi:start="2.5613815"
           sodipodi:end="2.5603603"
           sodipodi:open="true"
           sodipodi:arc-type="arc"
           d="M 6.7135902,52.0414 A 32.761242,32.831406 0 0 1 16.146628,6.5893563 32.761242,32.831406 0 0 1 61.503943,16.030993 32.761242,32.831406 0 0 1 52.094065,61.487857 32.761242,32.831406 0 0 1 6.7319449,52.069431" /><rect
           style="display:inline;fill:#ffffff;fill-opacity:1;stroke:#000000;stroke-width:0.265254"
           id="rect3"
           width="22.695158"
           height="22.695158"
           x="36.632626"
           y="-10.491428"
           transform="rotate(45)" /></g></g><g
       id="layer2"
       inkscape:label="图层 2"><path
         style="display:inline;fill:#000000;fill-opacity:1;stroke:#000000;stroke-width:0.264583;stroke-dasharray:none;stroke-opacity:1"
         d="m 33.461756,20.103156 v 6.684863 l -3.533117,3.280937 v 7.672916 l 6.614583,-6.614583 v 7.226949 l -3.081466,3.091801 0.03876,7.540625 14.424959,-14.419792 z"
         id="path2" /></g></g><path
     style="font-size:26.6667px;line-height:1.23;font-family:'Swis721 Blk BT';-inkscape-font-specification:'Swis721 Blk BT';fill:#f9f9f9;fill-opacity:0.8;stroke:#000000"
     d="m 190.71095,128.22655 q 0,2.72136 0.91146,3.9974 0.91146,1.27604 2.85157,1.27604 1.92708,0 2.82552,-1.26302 0.89844,-1.27604 0.89844,-4.01042 0,-2.7474 -0.89844,-4.01042 -0.89844,-1.27604 -2.82552,-1.27604 -1.94011,0 -2.85157,1.27604 -0.91146,1.27604 -0.91146,4.01042 z m -6.21094,0 q 0,-4.68751 2.66927,-7.39584 2.6823,-2.70834 7.3047,-2.70834 4.60938,0 7.27865,2.70834 2.66928,2.70833 2.66928,7.39584 0,4.67449 -2.66928,7.39584 -2.66927,2.70834 -7.27865,2.70834 -4.6224,0 -7.3047,-2.70834 -2.66927,-2.72135 -2.66927,-7.39584 z m 22.47398,9.57032 v -14.15366 h 5.19532 v 2.57813 q 0.5599,-1.53646 1.60157,-2.23959 1.05469,-0.71614 2.79948,-0.71614 h 0.50781 v 5.61198 q -0.3125,-0.026 -0.59896,-0.0391 -0.28645,-0.026 -0.54687,-0.026 -1.70573,0 -2.51303,0.76823 -0.79427,0.76823 -0.79427,2.40886 v 5.80729 z m 21.6016,-5.52084 h 5.625 q -0.18229,2.79949 -2.23958,4.41407 -2.04428,1.61459 -5.44272,1.61459 -3.76302,0 -5.95053,-2.04428 -2.1875,-2.04427 -2.1875,-5.5599 0,-3.51563 2.16146,-5.53386 2.16146,-2.03125 5.92449,-2.03125 3.41146,0 5.4948,1.60156 2.08333,1.58855 2.1875,4.28386 h -5.62501 q -0.0911,-1.0026 -0.59896,-1.48437 -0.50781,-0.48178 -1.48437,-0.48178 -1.22396,0 -1.79688,0.88542 -0.57292,0.8724 -0.57292,2.76042 0,1.91407 0.54688,2.79948 0.55989,0.88542 1.77083,0.88542 0.97657,0 1.52344,-0.53385 0.5599,-0.53386 0.66407,-1.57553 z m 17.50002,-0.79427 q -0.80729,0.3125 -2.14844,0.66407 -2.10938,0.55989 -2.10938,1.49739 0,0.59896 0.41667,0.93751 0.41667,0.33854 1.1849,0.33854 1.40625,0 2.04427,-0.65105 0.65104,-0.65104 0.65104,-2.07031 0,-0.29948 -0.013,-0.44271 0,-0.15625 -0.026,-0.27344 z m 0.52083,6.31511 -0.35156,-1.35416 q -1.08073,0.95052 -2.33073,1.40625 -1.25,0.45573 -2.81251,0.45573 -2.39583,0 -3.71094,-1.17188 -1.30208,-1.1849 -1.30208,-3.33334 0,-2.09635 1.28906,-3.09896 1.28907,-1.0026 4.8698,-1.45833 0.45573,-0.0651 1.22396,-0.14323 2.66927,-0.28646 2.66927,-1.38021 0,-0.61198 -0.49479,-0.88542 -0.48177,-0.28646 -1.53646,-0.28646 -0.8724,0 -1.34115,0.35156 -0.46875,0.33855 -0.54687,1.05469 h -5.4948 q 0.0391,-2.38281 1.95313,-3.59375 1.91406,-1.22396 5.625,-1.22396 1.7448,0 3.21615,0.32552 1.48438,0.32552 2.30469,0.8724 1.00261,0.67708 1.40626,1.53646 0.40364,0.84635 0.40364,2.4349 v 7.89063 q 0,0.39063 0.15625,0.70313 0.15625,0.29948 0.45573,0.49479 v 0.40364 z m 8.07292,-4.66146 v -5.01303 h 6.71876 v 5.01303 z m 9.84377,4.66146 v -19.17971 h 14.50523 v 4.83074 h -8.34637 v 2.96875 h 6.64064 v 4.63542 h -6.64064 v 6.7448 z m 16.69273,0 v -19.17971 h 5.67709 v 19.17971 z m 18.43752,-6.31511 q -0.80729,0.3125 -2.14844,0.66407 -2.10938,0.55989 -2.10938,1.49739 0,0.59896 0.41667,0.93751 0.41667,0.33854 1.1849,0.33854 1.40625,0 2.04427,-0.65105 0.65104,-0.65104 0.65104,-2.07031 0,-0.29948 -0.013,-0.44271 0,-0.15625 -0.026,-0.27344 z m 0.52083,6.31511 -0.35156,-1.35416 q -1.08073,0.95052 -2.33073,1.40625 -1.25,0.45573 -2.8125,0.45573 -2.39584,0 -3.71095,-1.17188 -1.30208,-1.1849 -1.30208,-3.33334 0,-2.09635 1.28906,-3.09896 1.28907,-1.0026 4.8698,-1.45833 0.45573,-0.0651 1.22396,-0.14323 2.66927,-0.28646 2.66927,-1.38021 0,-0.61198 -0.49479,-0.88542 -0.48177,-0.28646 -1.53646,-0.28646 -0.87239,0 -1.34115,0.35156 -0.46875,0.33855 -0.54687,1.05469 h -5.4948 q 0.0391,-2.38281 1.95313,-3.59375 1.91406,-1.22396 5.625,-1.22396 1.7448,0 3.21615,0.32552 1.48438,0.32552 2.3047,0.8724 1.0026,0.67708 1.40625,1.53646 0.40364,0.84635 0.40364,2.4349 v 7.89063 q 0,0.39063 0.15625,0.70313 0.15625,0.29948 0.45573,0.49479 v 0.40364 z m 7.59116,-4.45313 h 5.46876 q 0,0.89844 0.45573,1.34115 0.46875,0.44271 1.39323,0.44271 0.88542,0 1.35417,-0.29948 0.48177,-0.29948 0.48177,-0.8724 0,-0.95052 -2.09636,-1.40625 -0.18229,-0.0391 -0.28646,-0.0651 -3.97136,-0.84636 -5.18229,-1.82292 -1.21094,-0.97656 -1.21094,-2.86459 0,-2.27865 1.77083,-3.46354 1.78386,-1.19792 5.19532,-1.19792 3.16407,0 4.89584,1.11979 1.74479,1.11979 2.00521,3.33334 h -5.06511 q -0.0651,-0.63802 -0.5599,-1.01563 -0.48177,-0.3776 -1.22396,-0.3776 -0.74218,0 -1.13281,0.26041 -0.39062,0.2474 -0.39062,0.72917 0,0.84636 1.91406,1.25 0.50781,0.10417 0.76823,0.15625 3.85417,0.88542 5.01303,1.88803 1.15885,0.98958 1.15885,2.91667 0,2.4349 -1.90104,3.67188 -1.88802,1.23698 -5.59897,1.23698 -3.4375,0 -5.2474,-1.23698 -1.79688,-1.23698 -1.97917,-3.72397 z m 17.01825,4.45313 v -19.17971 h 5.62501 v 6.53647 q 0.85938,-0.95052 1.94011,-1.41927 1.09375,-0.46875 2.40885,-0.46875 1.35417,0 2.38282,0.42968 1.02865,0.41667 1.74479,1.27605 0.63802,0.76823 0.89844,1.90104 0.27344,1.13282 0.27344,3.56771 v 7.35678 h -5.62501 v -7.33073 q 0,-1.61459 -0.42969,-2.21355 -0.42968,-0.61198 -1.48437,-0.61198 -1.06771,0 -1.58855,0.70313 -0.52083,0.70312 -0.52083,2.14844 v 7.30469 z m 18.75003,0 v -10.96355 h -1.75782 v -3.19011 h 1.75782 v -0.88542 q 0,-2.36979 1.17188,-3.48958 1.18489,-1.1198 3.67187,-1.1198 h 3.15105 v 3.54167 q -0.10417,0 -0.29948,-0.013 -0.19531,-0.013 -0.28646,-0.013 -1.02864,0 -1.43229,0.35157 -0.40365,0.33854 -0.40365,1.19791 0,0.0651 0.013,0.20834 0.013,0.13021 0.013,0.22135 h 2.39584 v 3.19011 h -2.39584 v 10.96355 z m 14.63544,-7.09636 q 0,1.96615 0.53385,2.82553 0.54688,0.85937 1.78386,0.85937 1.23698,0 1.78385,-0.85937 0.5599,-0.8724 0.5599,-2.82553 0,-1.9401 -0.5599,-2.78646 -0.54687,-0.85938 -1.78385,-0.85938 -1.23698,0 -1.78386,0.84636 -0.53385,0.84635 -0.53385,2.79948 z m -5.69012,0 q 0,-3.51563 2.13542,-5.53386 2.13542,-2.03125 5.87241,-2.03125 3.73698,0 5.85938,2.03125 2.13542,2.01823 2.13542,5.53386 0,3.54167 -2.13542,5.57293 -2.13542,2.03125 -5.85938,2.03125 -3.72397,0 -5.87241,-2.03125 -2.13542,-2.03126 -2.13542,-5.57293 z m 18.33336,7.09636 v -14.15366 h 5.19532 v 2.57813 q 0.5599,-1.53646 1.60157,-2.23959 1.05469,-0.71614 2.79948,-0.71614 h 0.50781 v 5.61198 q -0.3125,-0.026 -0.59896,-0.0391 -0.28645,-0.026 -0.54687,-0.026 -1.70573,0 -2.51302,0.76823 -0.79428,0.76823 -0.79428,2.40886 v 5.80729 z m 17.09638,-7.17448 q 0,1.70573 0.5599,2.53906 0.55989,0.82032 1.70573,0.82032 1.21094,0 1.78385,-0.8073 0.58594,-0.80729 0.58594,-2.52604 0,-1.53646 -0.625,-2.38282 -0.61198,-0.84635 -1.74479,-0.84635 -1.14584,0 -1.70573,0.80729 -0.5599,0.79427 -0.5599,2.39584 z m -4.67448,8.69792 h 5.57292 q 0.10417,0.50782 0.48177,0.72917 0.39063,0.22136 1.17188,0.22136 1.23698,0 1.66667,-0.54688 0.4427,-0.54687 0.4427,-2.40886 v -0.76823 q -0.71614,0.69011 -1.70573,1.04167 -0.97656,0.33854 -2.23958,0.33854 -2.86459,0 -4.59636,-1.95312 -1.71876,-1.96615 -1.71876,-5.22136 0,-3.42449 1.64063,-5.45574 1.65365,-2.03125 4.40105,-2.03125 1.53646,0 2.66927,0.54687 1.14584,0.53386 1.97917,1.66667 v -1.83594 h 4.98699 v 13.05991 q 0,3.69792 -1.8099,5.24741 -1.8099,1.54948 -6.10678,1.54948 -2.98177,0 -4.76563,-1.09375 -1.78386,-1.09376 -2.07031,-3.08595 z m 22.66929,-10.19532 h 5.01302 q -0.0911,-1.31511 -0.72916,-1.96615 -0.63803,-0.66406 -1.83594,-0.66406 -1.10678,0 -1.75782,0.70312 -0.63802,0.69011 -0.6901,1.92709 z m 4.71354,4.47917 h 5.39064 q -0.58594,2.31771 -2.57813,3.51563 -1.97917,1.1849 -5.23438,1.1849 -3.64584,0 -5.79428,-2.01823 -2.13542,-2.03126 -2.13542,-5.45574 0,-3.56771 2.1875,-5.62501 2.1875,-2.07031 5.95053,-2.07031 3.77605,0 5.91147,2.25261 2.14844,2.23958 2.14844,6.22396 v 0.33854 l -10.55991,0.013 q 0.0391,1.35417 0.71614,2.09636 0.67709,0.72917 1.88803,0.72917 0.82031,0 1.36719,-0.29948 0.54687,-0.3125 0.74218,-0.88542 z"
     id="text1"
     aria-label="Orca-Flashforge" /></svg>
