<?xml version="1.0" encoding="UTF-8" standalone="no"?>
<svg
   width="562"
   height="238"
   viewBox="0 0 562 238"
   fill="none"
   version="1.1"
   id="svg526"
   sodipodi:docname="FlashSlicer_about.svg"
   inkscape:version="1.3.2 (091e20e, 2023-11-25, custom)"
   xmlns:inkscape="http://www.inkscape.org/namespaces/inkscape"
   xmlns:sodipodi="http://sodipodi.sourceforge.net/DTD/sodipodi-0.dtd"
   xmlns="http://www.w3.org/2000/svg"
   xmlns:svg="http://www.w3.org/2000/svg">
  <defs
     id="defs530">
    <clipPath
       clipPathUnits="userSpaceOnUse"
       id="clipPath16">
      <path
         d="M 0,792 H 612 V 0 H 0 Z"
         id="path14" />
    </clipPath>
  </defs>
  <sodipodi:namedview
     id="namedview528"
     pagecolor="#ffffff"
     bordercolor="#000000"
     borderopacity="0.25"
     inkscape:showpageshadow="2"
     inkscape:pageopacity="0.0"
     inkscape:pagecheckerboard="0"
     inkscape:deskcolor="#d1d1d1"
     showgrid="false"
     inkscape:zoom="4.3060498"
     inkscape:cx="223.05827"
     inkscape:cy="116.92851"
     inkscape:window-width="1920"
     inkscape:window-height="1001"
     inkscape:window-x="-9"
     inkscape:window-y="-9"
     inkscape:window-maximized="1"
     inkscape:current-layer="svg526" />
  <rect
     x="1"
     y="1"
     width="560"
     height="237"
     fill="#009688"
     id="rect366"
     style="fill:#4d4d4d;fill-opacity:1" />
  <g
     opacity="0.2"
     id="g408">
    <path
       d="M19.234 8.7434V25.4149L37.159 18.6717V2.00019L19.234 8.7434Z"
       stroke="white"
       stroke-width="1.5"
       stroke-miterlimit="10"
       id="path368" />
    <path
       d="M19.2341 8.7434V25.4149L1 18.6717V2.00019L19.2341 8.7434Z"
       stroke="white"
       stroke-width="1.5"
       stroke-miterlimit="10"
       id="path370" />
    <path
       d="M90.9363 8.7434V25.4149L73.0113 18.6717V2.00019L90.9363 8.7434Z"
       stroke="white"
       stroke-width="1.5"
       stroke-miterlimit="10"
       id="path372" />
    <path
       d="M127.404 8.7434V25.4149L145.329 18.6717V2.00019L127.404 8.7434Z"
       stroke="white"
       stroke-width="1.5"
       stroke-miterlimit="10"
       id="path374" />
    <path
       d="M19.2341 25.538V42.2238L1 35.4806V18.8091L19.2341 25.538Z"
       stroke="white"
       stroke-width="1.5"
       stroke-miterlimit="10"
       id="path376" />
    <path
       d="M19.234 58.7326V75.8463L37.159 68.9302V51.8313L19.234 58.7326Z"
       stroke="white"
       stroke-width="1.5"
       stroke-miterlimit="10"
       id="path378" />
    <path
       d="M55.3944 25.538V42.2238L73.0104 35.4806V18.8091L55.3944 25.538Z"
       stroke="white"
       stroke-width="1.5"
       stroke-miterlimit="10"
       id="path380" />
    <path
       d="M90.9363 42.2787V58.7364L73.0113 52.0939V35.6219L90.9363 42.2787Z"
       stroke="white"
       stroke-width="1.5"
       stroke-miterlimit="10"
       id="path382" />
    <path
       d="M90.9363 96.0424V112.5L73.0113 105.858V89.3856L90.9363 96.0424Z"
       stroke="white"
       stroke-width="1.5"
       stroke-miterlimit="10"
       id="path384" />
    <path
       d="M55.3945 25.6388V42.524L37.1604 35.7089V18.8091L55.3945 25.6388Z"
       stroke="white"
       stroke-width="1.5"
       stroke-miterlimit="10"
       id="path386" />
    <path
       d="M55.3945 42.3652V59.0366L37.1604 52.3078V35.6219L55.3945 42.3652Z"
       stroke="white"
       stroke-width="1.5"
       stroke-miterlimit="10"
       id="path388" />
    <path
       d="M127.404 42.2787V58.7364L145.329 52.0939V35.6219L127.404 42.2787Z"
       stroke="white"
       stroke-width="1.5"
       stroke-miterlimit="10"
       id="path390" />
    <path
       d="M163.251 25.538V42.2238L145.326 35.4806V18.8091L163.251 25.538Z"
       stroke="white"
       stroke-width="1.5"
       stroke-miterlimit="10"
       id="path392" />
    <path
       d="M127.404 75.4718V92.357L145.329 85.5419V68.6422L127.404 75.4718Z"
       stroke="white"
       stroke-width="1.5"
       stroke-miterlimit="10"
       id="path394" />
    <path
       d="M163.251 42.2233V59.337L145.326 52.4209V35.472L163.251 42.2233Z"
       stroke="white"
       stroke-width="1.5"
       stroke-miterlimit="10"
       id="path396" />
    <path
       d="M90.9338 58.7326V75.8463L108.859 68.9302V51.8313L90.9338 58.7326Z"
       stroke="white"
       stroke-width="1.5"
       stroke-miterlimit="10"
       id="path398" />
    <path
       d="M199.413 25.538V42.2238L181.179 35.4806V18.8091L199.413 25.538Z"
       stroke="white"
       stroke-width="1.5"
       stroke-miterlimit="10"
       id="path400" />
    <path
       d="M127.401 25.538V42.2238L108.858 35.4806V18.8091L127.401 25.538Z"
       stroke="white"
       stroke-width="1.5"
       stroke-miterlimit="10"
       id="path402" />
    <path
       d="M199.413 58.7326V75.8463L181.179 68.9302V51.8313L199.413 58.7326Z"
       stroke="white"
       stroke-width="1.5"
       stroke-miterlimit="10"
       id="path404" />
    <path
       d="M163.253 8.65694V25.1147L181.178 18.4721V2.00019L163.253 8.65694Z"
       stroke="white"
       stroke-width="1.5"
       stroke-miterlimit="10"
       id="path406" />
  </g>
  <g
     opacity="0.2"
     id="g458">
    <path
       d="M235.752 8.74321V25.4147L253.677 18.6715V2L235.752 8.74321Z"
       stroke="white"
       stroke-width="1.5"
       stroke-miterlimit="10"
       id="path410" />
    <path
       d="M235.75 8.74321V25.4147L217.516 18.6715V2L235.75 8.74321Z"
       stroke="white"
       stroke-width="1.5"
       stroke-miterlimit="10"
       id="path412" />
    <path
       d="M307.45 8.74321V25.4147L289.525 18.6715V2L307.45 8.74321Z"
       stroke="white"
       stroke-width="1.5"
       stroke-miterlimit="10"
       id="path414" />
    <path
       d="M343.92 8.74321V25.4147L361.845 18.6715V2L343.92 8.74321Z"
       stroke="white"
       stroke-width="1.5"
       stroke-miterlimit="10"
       id="path416" />
    <path
       d="M199.591 42.2785V58.7363L217.516 52.0937V35.6218L199.591 42.2785Z"
       stroke="white"
       stroke-width="1.5"
       stroke-miterlimit="10"
       id="path418" />
    <path
       d="M235.75 25.5378V42.2236L217.516 35.4804V18.8089L235.75 25.5378Z"
       stroke="white"
       stroke-width="1.5"
       stroke-miterlimit="10"
       id="path420" />
    <path
       d="M235.752 58.7325V75.8461L253.677 68.93V51.8311L235.752 58.7325Z"
       stroke="white"
       stroke-width="1.5"
       stroke-miterlimit="10"
       id="path422" />
    <path
       d="M271.91 25.5378V42.2236L289.526 35.4804V18.8089L271.91 25.5378Z"
       stroke="white"
       stroke-width="1.5"
       stroke-miterlimit="10"
       id="path424" />
    <path
       d="M307.45 42.2785V58.7363L289.525 52.0937V35.6218L307.45 42.2785Z"
       stroke="white"
       stroke-width="1.5"
       stroke-miterlimit="10"
       id="path426" />
    <path
       d="M307.45 76.8426V93.3003L289.525 86.6577V70.1858L307.45 76.8426Z"
       stroke="white"
       stroke-width="1.5"
       stroke-miterlimit="10"
       id="path428" />
    <path
       d="M271.908 25.6386V42.5238L253.674 35.7087V18.8089L271.908 25.6386Z"
       stroke="white"
       stroke-width="1.5"
       stroke-miterlimit="10"
       id="path430" />
    <path
       d="M271.908 42.365V59.0365L253.674 52.3076V35.6218L271.908 42.365Z"
       stroke="white"
       stroke-width="1.5"
       stroke-miterlimit="10"
       id="path432" />
    <path
       d="M343.92 42.2785V58.7363L361.845 52.0937V35.6218L343.92 42.2785Z"
       stroke="white"
       stroke-width="1.5"
       stroke-miterlimit="10"
       id="path434" />
    <path
       d="M379.769 25.5378V42.2236L361.844 35.4804V18.8089L379.769 25.5378Z"
       stroke="white"
       stroke-width="1.5"
       stroke-miterlimit="10"
       id="path436" />
    <path
       d="M343.92 75.4716V92.3568L361.845 85.5417V68.642L343.92 75.4716Z"
       stroke="white"
       stroke-width="1.5"
       stroke-miterlimit="10"
       id="path438" />
    <path
       d="M379.769 42.2231V59.3368L361.844 52.4207V35.4719L379.769 42.2231Z"
       stroke="white"
       stroke-width="1.5"
       stroke-miterlimit="10"
       id="path440" />
    <path
       d="M307.452 58.7325V75.8461L325.377 68.93V51.8311L307.452 58.7325Z"
       stroke="white"
       stroke-width="1.5"
       stroke-miterlimit="10"
       id="path442" />
    <path
       d="M415.925 25.5378V42.2236L397.691 35.4804V18.8089L415.925 25.5378Z"
       stroke="white"
       stroke-width="1.5"
       stroke-miterlimit="10"
       id="path444" />
    <path
       d="M379.771 58.7472V75.8461L397.696 68.9447V51.8311L379.771 58.7472Z"
       stroke="white"
       stroke-width="1.5"
       stroke-miterlimit="10"
       id="path446" />
    <path
       d="M379.769 98.3847V115.484L397.694 108.582V91.4686L379.769 98.3847Z"
       stroke="white"
       stroke-width="1.5"
       stroke-miterlimit="10"
       id="path448" />
    <path
       d="M343.917 25.5378V42.2236L325.374 35.4804V18.8089L343.917 25.5378Z"
       stroke="white"
       stroke-width="1.5"
       stroke-miterlimit="10"
       id="path450" />
    <path
       d="M415.925 58.7325V75.8461L397.691 68.93V51.8311L415.925 58.7325Z"
       stroke="white"
       stroke-width="1.5"
       stroke-miterlimit="10"
       id="path452" />
    <path
       d="M455.53 113.522V130.636L437.296 123.72V106.621L455.53 113.522Z"
       stroke="white"
       stroke-width="1.5"
       stroke-miterlimit="10"
       id="path454" />
    <path
       d="M379.771 8.65675V25.1145L397.696 18.4719V2L379.771 8.65675Z"
       stroke="white"
       stroke-width="1.5"
       stroke-miterlimit="10"
       id="path456" />
  </g>
  <g
     opacity="0.5"
     id="g470">
    <g
       opacity="0.2"
       id="g468">
      <path
         d="M452.919 8.74321V25.4147L434.685 18.6715V2L452.919 8.74321Z"
         stroke="white"
         stroke-width="1.5"
         stroke-miterlimit="10"
         id="path460" />
      <path
         d="M416.76 42.2785V58.7363L434.685 52.0937V35.6218L416.76 42.2785Z"
         stroke="white"
         stroke-width="1.5"
         stroke-miterlimit="10"
         id="path462" />
      <path
         d="M416.76 75.2345V91.6922L434.685 85.0496V68.5777L416.76 75.2345Z"
         stroke="white"
         stroke-width="1.5"
         stroke-miterlimit="10"
         id="path464" />
      <path
         d="M452.919 25.5378V42.2236L434.685 35.4804V18.8089L452.919 25.5378Z"
         stroke="white"
         stroke-width="1.5"
         stroke-miterlimit="10"
         id="path466" />
    </g>
  </g>
  <g
     opacity="0.2"
     id="g498">
    <path
       d="M452.832 8.74321V25.4147L470.757 18.6715V2L452.832 8.74321Z"
       stroke="white"
       stroke-width="1.5"
       stroke-miterlimit="10"
       id="path472" />
    <path
       d="M452.832 8.74321V25.4147L434.598 18.6715V2L452.832 8.74321Z"
       stroke="white"
       stroke-width="1.5"
       stroke-miterlimit="10"
       id="path474" />
    <path
       d="M524.534 8.74321V25.4147L506.609 18.6715V2L524.534 8.74321Z"
       stroke="white"
       stroke-width="1.5"
       stroke-miterlimit="10"
       id="path476" />
    <path
       d="M452.832 25.5378V42.2236L434.598 35.4804V18.8089L452.832 25.5378Z"
       stroke="white"
       stroke-width="1.5"
       stroke-miterlimit="10"
       id="path478" />
    <path
       d="M452.832 58.7325V75.8461L470.757 68.93V51.8311L452.832 58.7325Z"
       stroke="white"
       stroke-width="1.5"
       stroke-miterlimit="10"
       id="path480" />
    <path
       d="M488.992 25.5378V42.2236L506.608 35.4804V18.8089L488.992 25.5378Z"
       stroke="white"
       stroke-width="1.5"
       stroke-miterlimit="10"
       id="path482" />
    <path
       d="M524.534 42.2785V58.7363L506.609 52.0937V35.6218L524.534 42.2785Z"
       stroke="white"
       stroke-width="1.5"
       stroke-miterlimit="10"
       id="path484" />
    <path
       d="M524.534 96.0422V112.5L506.609 105.857V89.3854L524.534 96.0422Z"
       stroke="white"
       stroke-width="1.5"
       stroke-miterlimit="10"
       id="path486" />
    <path
       d="M488.992 25.6386V42.5238L470.758 35.7087V18.8089L488.992 25.6386Z"
       stroke="white"
       stroke-width="1.5"
       stroke-miterlimit="10"
       id="path488" />
    <path
       d="M488.992 42.365V59.0365L470.758 52.3076V35.6218L488.992 42.365Z"
       stroke="white"
       stroke-width="1.5"
       stroke-miterlimit="10"
       id="path490" />
    <path
       d="M524.531 58.7325V75.8461L542.457 68.93V51.8311L524.531 58.7325Z"
       stroke="white"
       stroke-width="1.5"
       stroke-miterlimit="10"
       id="path492" />
    <path
       d="M560.999 25.5378V42.2236L542.456 35.4804V18.8089L560.999 25.5378Z"
       stroke="white"
       stroke-width="1.5"
       stroke-miterlimit="10"
       id="path494" />
    <path
       d="M560.999 77.5065V94.1923L542.456 87.4491V70.7776L560.999 77.5065Z"
       stroke="white"
       stroke-width="1.5"
       stroke-miterlimit="10"
       id="path496" />
  </g>
</svg>
