<?xml version="1.0" encoding="UTF-8" standalone="no"?>
<!-- Created with Inkscape (http://www.inkscape.org/) -->

<svg
   width="256"
   height="256"
   viewBox="0 0 67.733332 67.733333"
   version="1.1"
   id="svg1"
   xml:space="preserve"
   inkscape:version="1.3.2 (091e20e, 2023-11-25, custom)"
   sodipodi:docname="FlashSlicer.svg"
   xmlns:inkscape="http://www.inkscape.org/namespaces/inkscape"
   xmlns:sodipodi="http://sodipodi.sourceforge.net/DTD/sodipodi-0.dtd"
   xmlns="http://www.w3.org/2000/svg"
   xmlns:svg="http://www.w3.org/2000/svg"><sodipodi:namedview
     id="namedview1"
     pagecolor="#ffffff"
     bordercolor="#000000"
     borderopacity="0.25"
     inkscape:showpageshadow="2"
     inkscape:pageopacity="0.0"
     inkscape:pagecheckerboard="0"
     inkscape:deskcolor="#d1d1d1"
     inkscape:document-units="px"
     showgrid="true"
     inkscape:zoom="2"
     inkscape:cx="116.25"
     inkscape:cy="116.75"
     inkscape:window-width="1920"
     inkscape:window-height="1001"
     inkscape:window-x="-9"
     inkscape:window-y="-9"
     inkscape:window-maximized="1"
     inkscape:current-layer="layer1"><inkscape:grid
       id="grid2"
       units="px"
       originx="0"
       originy="0"
       spacingx="0.026458333"
       spacingy="0.026458333"
       empcolor="#0099e5"
       empopacity="0.30196078"
       color="#0099e5"
       opacity="0.14901961"
       empspacing="5"
       dotted="false"
       gridanglex="30"
       gridanglez="30"
       visible="true" /></sodipodi:namedview><defs
     id="defs1" /><g
     inkscape:label="图层 1"
     inkscape:groupmode="layer"
     id="layer1"><path
       id="rect1"
       style="display:inline;fill:#000000;fill-opacity:1;stroke:#000000;stroke-width:0.264583;stroke-dasharray:none;stroke-opacity:1"
       inkscape:label="rect1"
       d="M 5.2916666 0 C 2.3600892 -6.2665795e-16 0 2.3600892 0 5.2916666 L 0 62.441666 C 6.2665795e-16 65.373243 2.3600892 67.733332 5.2916666 67.733332 L 62.441666 67.733332 C 65.373243 67.733332 67.733332 65.373243 67.733332 62.441666 L 67.733332 5.2916666 C 67.733332 2.3600892 65.373243 0 62.441666 0 L 5.2916666 0 z M 33.362821 18.484143 L 49.452278 34.5736 L 33.362821 50.663574 L 17.273364 34.5736 L 33.362821 18.484143 z M 33.695617 20.1967 L 33.695617 26.881563 L 30.1625 30.1625 L 30.1625 37.835416 L 36.777083 31.220833 L 36.777083 38.447782 L 33.695617 41.539583 L 33.734375 49.080208 L 48.159334 34.660416 L 33.695617 20.1967 z " /></g></svg>
